# xmcd
#
# Track frame offsets:
#	150
#	22203
#	39697
#	60760
#	85125
#	115426
#	127877
#	147076
#	173623
#	196874
#	219223
#	242023
#
# Disc length: 3453 seconds
#
# Revision: 0
# Processed by: cddbd v1.5.2PL0 Copyright (c) Steve Scherf et al.
# Submitted via: audiograbber 1.83.01
#
DISCID=9a0d7b0c
DTITLE=Color Indio - Sun-Dance
DYEAR=1900
DGENRE=
TTITLE0=Dust in the wind
TTITLE1=Sun-dance
TTITLE2=The pituco
TTITLE3=This is for you
TTITLE4=Farewell
TTITLE5=Beautiful Beniana
TTITLE6=This will change
TTITLE7=Yamor
TTITLE8=Rengueando
TTITLE9=Under the moonlight
TTITLE10=Milky train
TTITLE11=Conquest of paradise
EXTD=
EXTT0=
EXTT1=
EXTT2=
EXTT3=
EXTT4=
EXTT5=
EXTT6=
EXTT7=
EXTT8=
EXTT9=
EXTT10=
EXTT11=
PLAYORDER=
